<?xml version="1.0" encoding="utf-8"?>
<!-- Generator: Adobe Illustrator 16.0.0, SVG Export Plug-In . SVG Version: 6.00 Build 0)  -->
<!DOCTYPE svg PUBLIC "-//W3C//DTD SVG 1.1//EN" "http://www.w3.org/Graphics/SVG/1.1/DTD/svg11.dtd">
<svg version="1.1" id="Layer_1" xmlns="http://www.w3.org/2000/svg" xmlns:xlink="http://www.w3.org/1999/xlink" x="0px" y="0px"
	 width="609.451px" height="609.449px" viewBox="0 0 609.451 609.449" enable-background="new 0 0 609.451 609.449"
	 xml:space="preserve">
<g>
	<path d="M176.61,522.797c-5.677-3.287-12.966-1.334-16.239,4.353l-27.425,47.507c-3.286,5.686-1.333,12.952,4.354,16.238
		c1.87,1.08,3.913,1.59,5.93,1.59c4.109,0,8.1-2.13,10.306-5.942l27.425-47.507C184.25,533.346,182.3,526.08,176.61,522.797z"/>
	<path d="M247.921,522.797c-5.686-3.287-12.952-1.334-16.238,4.353l-27.425,47.507c-3.286,5.686-1.333,12.952,4.354,16.238
		c1.869,1.08,3.913,1.59,5.93,1.59c4.109,0,8.099-2.13,10.306-5.942l27.425-47.507C255.56,533.346,253.607,526.08,247.921,522.797z"
		/>
	<path d="M319.232,522.797c-5.676-3.287-12.952-1.334-16.238,4.353l-27.425,47.507c-3.286,5.686-1.333,12.952,4.353,16.238
		c1.87,1.08,3.913,1.59,5.93,1.59c4.11,0,8.1-2.13,10.306-5.942l27.425-47.507C326.869,533.346,324.919,526.08,319.232,522.797z"/>
	<path d="M390.544,522.797c-5.687-3.287-12.952-1.334-16.238,4.353l-27.425,47.507c-3.286,5.686-1.333,12.952,4.353,16.238
		c1.87,1.08,3.913,1.59,5.93,1.59c4.109,0,8.1-2.13,10.306-5.942l27.425-47.507C398.179,533.346,396.23,526.08,390.544,522.797z"/>
	<path d="M461.855,522.797c-5.677-3.287-12.952-1.334-16.239,4.353l-27.424,47.507c-3.287,5.686-1.334,12.952,4.353,16.238
		c1.87,1.08,3.913,1.59,5.93,1.59c4.109,0,8.1-2.13,10.306-5.942l27.425-47.507C469.491,533.346,467.541,526.08,461.855,522.797z"/>
	<path fill="none" d="M1.653,0H610v608.347H1.653V0z"/>
	<path d="M492.135,254.493c-17.241-87.449-94.052-153.102-186.309-153.102c-73.254,0-136.875,41.567-168.561,102.406
		C60.97,211.91,1.653,276.542,1.653,354.869c0,83.902,68.185,152.087,152.087,152.087H483.26
		c69.954,0,126.739-56.785,126.739-126.739C610,313.308,558.042,259.053,492.135,254.493z M483.26,456.26H153.74
		c-56.018,0-101.391-45.373-101.391-101.391c0-56.017,45.373-101.391,101.391-101.391h17.996
		c16.734-58.555,70.213-101.391,134.091-101.391c77.058,0,139.412,62.354,139.412,139.413v12.673h38.021
		c42.081,0,76.043,33.962,76.043,76.043S525.342,456.26,483.26,456.26z"/>
</g>
</svg>
