<?xml version="1.0" encoding="utf-8"?>
<!-- Generator: Adobe Illustrator 16.0.0, SVG Export Plug-In . SVG Version: 6.00 Build 0)  -->
<!DOCTYPE svg PUBLIC "-//W3C//DTD SVG 1.1//EN" "http://www.w3.org/Graphics/SVG/1.1/DTD/svg11.dtd">
<svg version="1.1" id="Capa_1" xmlns="http://www.w3.org/2000/svg" xmlns:xlink="http://www.w3.org/1999/xlink" x="0px" y="0px"
	 width="609.451px" height="609.449px" viewBox="0 0 609.451 609.449" enable-background="new 0 0 609.451 609.449"
	 xml:space="preserve">
<g id="_x30_203-wind-breeze-icon">
	<g>
		<path d="M229.204,601.53c5.145-7.151-15.13-11.603-19.004-14.011c-12.162-7.54-18.894-22.208-26.562-33.756
			c-13.513-20.316-22.324-54.389-21.68-78.573c-0.607-34.328-5.801-71.927,4.592-105.445c8.294-26.764,14.041-54.535,22.627-81.657
			c9.657-30.49,20.378-60.683,26.836-92.086c3.563-17.379,5.862-35.008,6.708-52.734c0.645-13.677-3.199-27.499-1.667-40.98
			c-7.108-10.429-5.904-26.367-16.297-34.644c-3.74-12.752-14.035-21.339-20.378-32.606c-4.323-7.687-51.178-42.72-63.078-32.491
			c-0.535,0.456-0.998,0.997-1.381,1.636c-3.764,6.263,15.482,16.747,19.971,21.509c10.757,11.414,20.377,23.46,28.404,36.979
			c16.973,28.587,19.514,55.496,15.306,88.084c-7.479,58.008-27.085,113.297-43.917,168.567
			c-18.639,61.23-20.907,127.806-9.122,190.52c4.896,26.016,18.42,61.109,40.859,76.792
			C183.036,594.743,215.399,622.686,229.204,601.53z M254.391,2.904c-3.071,6.002,14.716,19.551,18.334,23.26
			c9.463,9.712,18.116,20.257,25.261,31.798c16.419,26.551,18.84,50.826,18.84,81.292c0,62.544-30.156,126.535-46.441,186.256
			c-16.82,61.711-20.244,129.192-5.771,191.699c6.421,27.712,20.511,56.609,44.294,72.876c11.25,7.692,39.959,31.044,52.753,11.444
			c5.145-7.151-15.129-11.603-19.003-14.011c-12.162-7.54-18.888-22.208-26.568-33.756c-13.518-20.316-22.329-54.389-21.679-78.573
			c-0.608-34.328-5.808-71.927,4.585-105.445c8.301-26.764,14.041-54.535,22.628-81.657c9.656-30.49,20.371-60.683,26.836-92.086
			c3.569-17.379,5.868-35.008,6.707-52.734c0.65-13.677-3.192-27.499-1.666-40.98c-7.109-10.429-5.905-26.367-16.304-34.644
			c-3.733-12.752-14.017-21.339-20.371-32.606c-6.367-11.299-43.778-37.417-58.068-34.645
			C256.355,0.861,254.975,1.743,254.391,2.904z M383.006,1.366c-1.003,0.528-1.764,1.112-2.305,1.738
			c-5.935,6.891,14.619,19.125,19.259,23.905c9.979,10.277,18.821,21.643,26.173,33.944c17.617,29.529,18.669,63.505,14.813,96.859
			c-6.641,57.611-30.716,110.554-43.357,166.749c-5.577,24.774-12.43,47.578-13.519,73.423c-1.411,33.13-2.408,64.574,2.748,97.576
			c2.585,16.565,6.355,33.075,12.771,48.612c5.589,13.555,16.517,24.105,26.045,35.143c10.24,11.876,53.325,49.025,64.387,18.134
			c-55.897-18.45-71.331-96.428-71.355-148.943c-0.03-34.754,2.555-68.248,11.572-101.834c7.225-26.927,16.504-53.221,25.085-79.741
			c16.674-51.573,39.161-120.441,20.401-173.268c-7.984-22.487-19.806-44.452-36.012-62.094
			C430.919,22.01,398.13-6.552,383.006,1.366z"/>
	</g>
</g>
</svg>
