<?xml version="1.0" encoding="utf-8"?>
<!-- Generator: Adobe Illustrator 16.0.0, SVG Export Plug-In . SVG Version: 6.00 Build 0)  -->
<!DOCTYPE svg PUBLIC "-//W3C//DTD SVG 1.1//EN" "http://www.w3.org/Graphics/SVG/1.1/DTD/svg11.dtd">
<svg version="1.1" id="Layer_1" xmlns="http://www.w3.org/2000/svg" xmlns:xlink="http://www.w3.org/1999/xlink" x="0px" y="0px"
	 width="609.449px" height="609.449px" viewBox="0 0 609.449 609.449" enable-background="new 0 0 609.449 609.449"
	 xml:space="preserve">
<g>
	<path fill="#BCBCBB" d="M210.695,382.121V227.342c0-10.69,8.645-19.343,19.336-19.343h274.584c53.365,0,96.73,43.38,96.73,96.745
		c0,53.333-43.365,96.699-96.73,96.699H230.031C219.34,401.443,210.695,392.798,210.695,382.121z"/>
	<g>
		
			<image overflow="visible" opacity="0.75" width="563" height="563" xlink:href="16749947B1640E8B.png"  transform="matrix(1 0 0 1 -137.2395 23.4573)">
		</image>
		<g>
			<path fill="#FFFFFF" d="M143.521,440.131c74.795,0,135.418-60.623,135.418-135.387c0-74.81-60.623-135.419-135.418-135.426
				C68.71,169.325,8.118,229.934,8.103,304.744C8.118,379.508,68.71,440.131,143.521,440.131z"/>
			<path fill="none" stroke="#BCBBBB" stroke-miterlimit="10" d="M143.521,440.131c74.795,0,135.418-60.623,135.418-135.387
				c0-74.81-60.623-135.419-135.418-135.426C68.71,169.325,8.118,229.934,8.103,304.744
				C8.118,379.508,68.71,440.131,143.521,440.131z"/>
		</g>
	</g>
</g>
</svg>
