<?xml version="1.0" encoding="utf-8"?>
<!-- Generator: Adobe Illustrator 16.0.0, SVG Export Plug-In . SVG Version: 6.00 Build 0)  -->
<!DOCTYPE svg PUBLIC "-//W3C//DTD SVG 1.1//EN" "http://www.w3.org/Graphics/SVG/1.1/DTD/svg11.dtd">
<svg version="1.1" id="Layer_1" xmlns="http://www.w3.org/2000/svg" xmlns:xlink="http://www.w3.org/1999/xlink" x="0px" y="0px"
	 width="609.45px" height="609.45px" viewBox="0 0 609.45 609.45" enable-background="new 0 0 609.45 609.45" xml:space="preserve">
<g>
	<path fill="#BCBCBB" d="M397.839,228.032v154.779c0,10.689-8.645,19.344-19.336,19.344H103.919
		c-53.365,0-96.73-43.381-96.73-96.746c0-53.333,43.365-96.699,96.73-96.699h274.584
		C389.194,208.709,397.839,217.355,397.839,228.032z"/>
	<g>
		
			<image overflow="visible" opacity="0.75" enable-background="new    " width="564" height="564" xlink:href="16749947B1640E8B.png"  transform="matrix(-0.9982 0 0 -0.9982 745.7734 586.6953)">
		</image>
		<g>
			<path fill="#FFFFFF" d="M465.013,170.021c-74.795,0-135.418,60.624-135.418,135.388c0,74.81,60.623,135.419,135.418,135.425
				c74.812-0.006,135.403-60.615,135.418-135.425C600.416,230.645,539.824,170.021,465.013,170.021z"/>
			<path fill="none" stroke="#BCBBBB" stroke-miterlimit="10" d="M465.013,170.021c-74.795,0-135.418,60.624-135.418,135.388
				c0,74.81,60.623,135.419,135.418,135.425c74.812-0.006,135.403-60.615,135.418-135.425
				C600.416,230.645,539.824,170.021,465.013,170.021z"/>
		</g>
	</g>
</g>
</svg>
