<?xml version="1.0" encoding="iso-8859-1"?>
<!-- Generator: Adobe Illustrator 19.0.0, SVG Export Plug-In . SVG Version: 6.00 Build 0)  -->
<svg version="1.1" id="Layer_1" xmlns="http://www.w3.org/2000/svg" xmlns:xlink="http://www.w3.org/1999/xlink" x="0px" y="0px"
	 viewBox="0 0 512 512" style="enable-background:new 0 0 512 512;" xml:space="preserve">
<g>
	<g>
		<path d="M189.63,94.8c-31.37,0-56.889,25.535-56.889,56.905c0,5.236,4.241,9.488,9.482,9.488c5.241,0,9.482-4.241,9.482-9.477
			c0-20.912,17.009-37.925,37.926-37.925c20.917,0,37.926,16.954,37.926,37.866s-17.009,37.865-37.926,37.865H9.482
			c-5.241,0-9.482,4.245-9.482,9.482s4.241,9.481,9.482,9.481H189.63c31.37,0,56.889-25.456,56.889-56.827
			C246.518,120.288,221,94.8,189.63,94.8z"/>
	</g>
</g>
<g>
	<g>
		<path d="M331.852,132.726c-31.37,0-56.889,25.535-56.889,56.905c0,5.236,4.241,9.488,9.482,9.488c5.241,0,9.481-4.241,9.481-9.477
			c0-20.912,17.009-37.925,37.926-37.925c20.917,0,37.926,16.954,37.926,37.866c0,20.912-17.009,37.865-37.926,37.865H9.482
			c-5.241,0-9.482,4.245-9.482,9.482s4.241,9.482,9.482,9.482h322.37c31.37,0,56.889-25.456,56.889-56.828
			C388.741,158.215,363.222,132.726,331.852,132.726z"/>
	</g>
</g>
<g>
	<g>
		<path d="M331.852,303.3H9.482C4.241,303.3,0,307.546,0,312.782s4.241,9.481,9.482,9.481h322.37
			c20.917,0,37.926,17.076,37.926,37.987c0,20.913-17.009,37.957-37.926,37.957c-20.917,0-37.926-16.998-37.926-37.91
			c0-5.236-4.241-9.475-9.481-9.475c-5.241,0-9.482,4.25-9.482,9.486c0,31.37,25.519,56.89,56.889,56.89
			c31.37,0,56.889-25.579,56.889-56.949C388.741,328.88,363.222,303.3,331.852,303.3z"/>
	</g>
</g>
<g>
	<g>
		<path d="M455.111,170.683c-31.37,0-56.889,25.519-56.889,56.889c0,5.236,4.241,9.481,9.482,9.481c5.241,0,9.481-4.245,9.481-9.481
			c0-20.912,17.009-37.926,37.926-37.926c20.917,0,37.926,16.953,37.926,37.864c0,20.913-17.009,37.865-37.926,37.865H9.482
			c-5.241,0-9.482,4.245-9.482,9.482c0,5.236,4.241,9.481,9.482,9.481h445.63c31.37,0,56.889-25.456,56.889-56.828
			C512,196.139,486.482,170.683,455.111,170.683z"/>
	</g>
</g>
<g>
</g>
<g>
</g>
<g>
</g>
<g>
</g>
<g>
</g>
<g>
</g>
<g>
</g>
<g>
</g>
<g>
</g>
<g>
</g>
<g>
</g>
<g>
</g>
<g>
</g>
<g>
</g>
<g>
</g>
</svg>
